<?xml version="1.0" standalone="no"?>
<!DOCTYPE svg PUBLIC "-//W3C//DTD SVG 20010904//EN"
 "http://www.w3.org/TR/2001/REC-SVG-20010904/DTD/svg10.dtd">
<svg version="1.0" xmlns="http://www.w3.org/2000/svg"
 width="584" height="338" viewBox="0 0 584.000000 338.000000"
 preserveAspectRatio="xMidYMid meet">
<title>Fresh &amp; Fusion</title>
<metadata>
Created by potrace 1.16, written by Peter Selinger 2001-2019
</metadata>
<g transform="translate(0.000000,338.000000) scale(0.100000,-0.100000)"
fill="#0B5C4C" stroke="none">
<path d="M2715 3127 c-57 -23 -75 -38 -94 -75 -27 -54 -34 -95 -21 -141 16
-61 47 -90 165 -156 112 -63 135 -87 135 -145 0 -42 -15 -67 -50 -85 -81 -42
-182 8 -226 113 -22 54 -37 28 -32 -58 2 -48 8 -74 18 -81 60 -38 216 -51 276
-23 118 56 148 218 56 306 -20 20 -73 54 -117 76 -44 22 -93 53 -108 70 -45
47 -39 115 12 145 65 38 146 8 189 -71 13 -23 28 -42 33 -42 10 0 12 92 3 126
-3 11 -20 26 -37 33 -47 18 -166 23 -202 8z M3992 3118 c-103 -50 -138 -185
-73 -277 13 -17 31 -36 42 -41 26 -14 24 -23 -9 -38 -52 -22 -110 -82 -139
-140 -54 -110 -29 -270 54 -342 117 -103 295 -105 396 -3 57 56 81 116 82 199
0 62 -4 77 -32 122 l-31 50 63 23 c145 51 214 143 223 300 6 115 0 131 -35 89
-14 -18 -59 -48 -100 -67 -44 -21 -83 -47 -98 -67 -25 -32 -54 -121 -43 -131
8 -9 85 31 133 69 l40 31 -23 -31 c-24 -34 -72 -67 -197 -134 -149 -80 -195
-133 -195 -228 0 -56 20 -82 63 -82 35 0 43 18 18 41 -45 42 -8 125 66 150 33
11 37 10 54 -12 10 -13 23 -46 29 -74 29 -128 -59 -249 -180 -249 -58 1 -103
25 -140 75 -84 117 -51 300 65 366 22 13 50 23 62 23 31 0 57 28 42 46 -6 8
-17 14 -25 14 -27 0 -84 62 -95 103 -29 109 34 209 112 177 44 -19 63 -79 47
-151 -2 -9 7 -15 23 -17 38 -4 69 38 69 94 0 108 -148 170 -268 112z M1070
3120 c0 -5 9 -19 20 -30 19 -19 20 -33 20 -289 l0 -269 -26 -31 -26 -31 101 0
c56 0 101 3 101 7 0 4 -8 16 -19 27 -16 18 -19 42 -23 149 l-5 127 63 0 c76 0
93 -6 105 -36 18 -48 29 -24 29 61 0 69 -3 85 -15 85 -8 0 -15 -6 -15 -14 0
-28 -42 -46 -108 -46 -62 0 -64 1 -58 23 3 12 6 68 6 125 l0 102 74 0 c95 0
127 -12 157 -59 13 -22 27 -37 32 -34 9 5 9 54 1 106 l-7 37 -203 0 c-129 0
-204 -4 -204 -10z M1540 3125 c0 -4 9 -18 20 -32 19 -24 20 -41 20 -299 l0
-274 -25 -16 c-14 -9 -22 -20 -19 -25 6 -10 194 -13 194 -3 0 3 -9 17 -20 31
-17 22 -20 41 -20 129 0 95 2 103 20 109 35 11 63 -18 112 -114 64 -125 113
-195 176 -258 140 -138 338 -158 485 -50 24 19 37 47 20 47 -3 0 -31 -12 -62
-27 -73 -36 -163 -38 -235 -5 -69 31 -180 149 -240 252 -26 47 -61 103 -76
126 l-27 41 41 21 c66 35 91 82 91 167 0 62 -3 76 -27 107 -48 63 -82 72 -265
76 -90 2 -163 1 -163 -3z m285 -59 c43 -18 65 -61 65 -129 0 -95 -64 -153
-160 -145 l-35 3 -3 143 -3 142 51 0 c28 0 66 -6 85 -14z M2090 3124 c0 -3 9
-17 20 -31 19 -24 20 -41 20 -287 0 -243 -1 -263 -20 -294 -11 -18 -20 -35
-20 -37 0 -3 94 -5 209 -5 166 0 210 3 214 13 10 27 19 126 12 137 -5 8 -16
-3 -32 -29 -34 -58 -66 -71 -168 -71 l-85 0 0 135 0 135 61 0 c55 0 64 -3 89
-30 15 -16 31 -30 34 -30 3 0 6 38 6 85 0 50 -4 85 -10 85 -5 0 -10 -4 -10 -8
0 -5 -9 -18 -20 -30 -17 -18 -32 -22 -85 -22 -61 0 -65 2 -71 25 -3 14 -3 68
1 120 l7 95 78 0 c93 0 117 -9 149 -56 33 -48 46 -32 35 43 l-9 58 -202 3
c-112 1 -203 0 -203 -4z M3050 3124 c0 -3 11 -19 25 -36 l25 -30 0 -257 c0
-258 0 -258 -25 -295 l-24 -36 94 0 c90 0 121 9 92 27 -29 17 -37 53 -37 172
l0 121 135 0 135 0 0 -129 c0 -125 -1 -131 -26 -160 l-26 -31 106 0 c58 0 106
2 106 5 0 3 -12 16 -27 29 l-27 24 3 273 c2 255 4 275 22 295 10 11 16 24 12
27 -10 11 -181 8 -188 -3 -3 -5 -2 -10 4 -10 26 0 41 -60 41 -165 l0 -105
-136 0 -136 0 4 114 c3 103 5 117 26 138 12 14 19 28 15 31 -8 9 -193 9 -193
1z M5085 3011 c-66 -18 -161 -59 -212 -91 -29 -19 -43 -59 -44 -129 l-1 -56
-12 55 c-14 69 -30 73 -94 27 -62 -47 -189 -178 -201 -209 -6 -16 -6 -41 0
-68 12 -52 7 -59 -15 -25 -9 14 -21 23 -26 20 -13 -8 -48 -120 -69 -225 -18
-89 -22 -97 -62 -133 -86 -77 -269 -147 -384 -147 -22 0 -66 6 -97 14 -54 12
-57 12 -62 -7 -3 -13 5 -29 24 -48 26 -26 35 -29 98 -29 166 0 330 71 507 218
67 56 125 97 133 95 9 -4 1 -18 -28 -48 l-41 -41 143 4 c126 3 149 6 194 28
28 13 59 33 69 44 17 19 16 20 -36 44 l-54 25 66 -6 66 -5 12 47 c32 126 101
192 231 219 17 4 32 18 43 41 18 38 20 36 -38 51 l-30 8 30 3 c66 7 75 13 100
63 32 63 51 175 37 212 -25 62 -125 82 -247 49z M5341 2616 c-20 -24 -10 -70
17 -74 46 -7 69 40 36 72 -19 20 -38 20 -53 2z M5137 2515 c-81 -28 -131 -104
-131 -200 -1 -102 49 -171 133 -182 109 -15 187 123 112 198 -16 16 -34 29
-40 29 -20 0 -20 -18 -1 -35 25 -23 26 -76 3 -98 -10 -8 -29 -18 -43 -22 -59
-14 -114 76 -91 148 38 115 200 118 251 4 53 -115 -8 -258 -126 -297 -58 -19
-165 -7 -294 35 -133 42 -266 56 -362 36 -73 -15 -163 -60 -214 -107 -44 -40
-33 -40 61 0 120 51 219 29 285 -62 34 -48 71 -55 111 -24 45 37 -9 82 -131
108 -129 27 -133 34 -17 35 67 0 96 -6 244 -58 147 -51 177 -58 243 -58 125 1
214 55 271 167 34 65 38 178 10 245 -28 63 -83 117 -140 138 -53 18 -84 18
-134 0z M2943 2281 c-70 -68 -154 -112 -268 -142 -63 -17 -118 -23 -262 -26
-235 -7 -308 2 -758 92 -203 41 -414 79 -468 86 -140 17 -380 7 -482 -20 -285
-75 -464 -273 -465 -516 0 -206 127 -349 321 -363 80 -5 150 14 216 59 112 77
147 272 61 344 -37 31 -90 33 -119 4 l-20 -20 25 -24 c31 -29 40 -61 34 -129
-5 -63 -29 -99 -84 -126 -135 -67 -285 31 -312 203 -26 167 65 334 221 407
111 52 177 64 342 64 190 -1 265 -14 680 -119 182 -46 380 -93 440 -105 139
-28 388 -38 505 -21 216 32 376 132 445 276 25 54 36 126 20 131 -5 2 -38 -23
-72 -55z M3500 2203 c-49 -18 -90 -83 -90 -144 0 -33 6 -47 34 -75 59 -59 146
-41 185 39 25 51 26 75 7 122 -21 50 -84 77 -136 58z M1325 2045 c-109 -52
-201 -208 -276 -468 l-43 -147 -40 -11 c-68 -18 -150 -65 -189 -108 -36 -40
-63 -110 -53 -137 9 -22 19 -17 59 31 21 25 55 54 76 64 41 21 111 37 111 26
0 -24 -135 -555 -162 -635 -75 -228 -163 -330 -285 -330 -61 0 -106 27 -133
79 -43 84 -17 186 54 212 43 15 45 30 10 58 -35 27 -73 27 -114 -2 -47 -31
-71 -77 -77 -145 -14 -159 95 -279 263 -290 180 -11 324 96 434 323 59 123 91
224 164 521 l57 230 119 11 c144 13 195 36 229 106 20 42 28 97 15 110 -4 3
-21 -4 -38 -17 -17 -13 -56 -31 -86 -40 -58 -17 -200 -33 -200 -23 0 18 44
188 75 292 36 118 88 229 127 272 l20 21 -20 11 c-29 15 -40 14 -97 -14z
M2853 1840 c-101 -21 -172 -72 -216 -154 -18 -34 -22 -57 -22 -136 0 -106 15
-145 98 -270 l43 -64 -77 -37 c-92 -44 -144 -89 -214 -184 -101 -136 -162
-178 -197 -135 -34 42 -21 126 101 630 48 199 65 287 57 292 -22 15 -97 8
-136 -12 -49 -25 -60 -46 -100 -194 -90 -335 -226 -618 -332 -691 -51 -36 -74
-39 -97 -16 -36 36 -28 108 50 426 79 321 91 411 64 468 -23 49 -71 70 -146
65 -32 -2 -61 -7 -64 -9 -2 -3 4 -23 16 -45 29 -55 21 -109 -64 -458 -60 -249
-70 -304 -71 -381 0 -73 4 -98 22 -132 57 -109 187 -123 301 -33 51 41 122
132 171 222 l28 51 -1 -99 c-2 -88 1 -105 23 -148 61 -119 201 -114 316 11
l51 55 24 -43 c85 -153 375 -157 504 -7 74 88 96 226 55 349 -12 34 -20 62
-18 63 2 1 32 15 67 31 36 17 89 47 119 68 50 35 54 36 49 15 -102 -407 -93
-568 36 -617 98 -37 205 23 297 167 l47 72 17 -44 c41 -108 105 -170 206 -200
71 -21 125 -20 200 3 127 40 243 151 319 305 41 83 85 224 96 309 6 42 10 49
44 66 21 11 63 41 95 66 56 46 57 46 50 18 -4 -15 -44 -185 -90 -378 -56 -241
-78 -354 -71 -362 6 -9 39 -13 96 -13 l86 0 41 168 c66 267 156 484 273 658
87 131 160 175 197 119 25 -38 15 -95 -66 -395 -54 -197 -74 -287 -77 -351
-10 -158 32 -249 134 -296 135 -62 289 11 365 172 51 111 62 240 22 280 -24
24 -31 12 -37 -67 -8 -94 -29 -164 -70 -224 -58 -88 -135 -117 -190 -74 -72
57 -63 164 48 545 103 350 104 487 6 552 -46 31 -119 31 -186 -1 -66 -30 -158
-130 -230 -248 -57 -93 -57 -93 -50 -48 3 25 10 77 15 115 13 101 -8 177 -51
190 -32 10 -90 8 -101 -3 -6 -6 -17 -43 -24 -82 -8 -40 -24 -86 -35 -103 -38
-55 -112 -128 -151 -148 l-38 -19 0 33 c0 89 -56 224 -115 275 -68 60 -176 85
-252 59 -75 -26 -270 -164 -318 -225 -87 -111 -136 -236 -160 -409 -12 -85
-25 -135 -45 -178 -53 -110 -123 -185 -175 -185 -9 0 -23 16 -31 37 -20 46
-13 84 97 551 44 184 79 340 79 348 0 21 -96 18 -139 -4 -49 -24 -68 -55 -94
-154 -42 -155 -114 -226 -318 -311 l-37 -15 -62 85 c-123 169 -149 269 -90
337 42 47 87 62 134 42 54 -23 72 -89 41 -150 -19 -35 -8 -46 44 -46 24 0 42
9 67 34 30 30 34 40 34 89 0 46 -5 61 -27 88 -49 58 -164 89 -260 69z m1363
-95 c12 -8 29 -30 38 -48 21 -47 38 -169 30 -228 l-7 -49 -46 0 c-58 0 -106
24 -145 73 -25 31 -31 49 -34 101 -5 74 13 122 56 148 33 21 81 23 108 3z
m-256 -244 c41 -94 136 -158 251 -168 67 -7 64 9 28 -137 -35 -141 -89 -261
-151 -337 -27 -33 -91 -69 -124 -69 -54 0 -98 47 -118 125 -30 120 -17 327 31
480 23 73 54 155 59 155 2 0 13 -22 24 -49z m-1119 -413 c64 -147 -1 -298
-128 -298 -35 0 -50 6 -79 33 -93 85 -30 233 127 302 51 21 55 19 80 -37z"/>
</g>
</svg>
